<?xml version="1.0" standalone="no"?>
<!DOCTYPE svg PUBLIC "-//W3C//DTD SVG 20010904//EN"
 "http://www.w3.org/TR/2001/REC-SVG-20010904/DTD/svg10.dtd">
<svg version="1.0" xmlns="http://www.w3.org/2000/svg"
 width="756.000000pt" height="496.000000pt" viewBox="0 0 756.000000 496.000000"
 preserveAspectRatio="xMidYMid meet">
<metadata>
Created by potrace 1.16, written by Peter Selinger 2001-2019
</metadata>
<g transform="translate(0.000000,496.000000) scale(0.100000,-0.100000)"
fill="#1E1AFF" stroke="none">
<path d="M2480 4790 c0 -6 -40 -10 -100 -10 -60 0 -100 -4 -100 -10 0 -6 -27
-10 -60 -10 -33 0 -60 4 -60 10 0 6 -9 10 -20 10 -11 0 -20 -4 -20 -10 0 -6
-40 -10 -100 -10 -60 0 -100 -4 -100 -10 0 -6 -43 -10 -110 -10 -67 0 -110 -4
-110 -10 0 -6 -43 -10 -110 -10 -67 0 -110 -4 -110 -10 0 -6 -30 -10 -70 -10
-40 0 -70 -4 -70 -10 0 -5 -9 -10 -20 -10 -11 0 -20 -4 -20 -10 0 -6 -26 -10
-58 -10 -46 0 -60 -4 -72 -20 -11 -15 -26 -20 -62 -20 -26 0 -48 -4 -48 -10 0
-5 -9 -10 -20 -10 -11 0 -20 -4 -20 -10 0 -5 -9 -10 -20 -10 -11 0 -20 -4 -20
-10 0 -5 -8 -10 -18 -10 -10 0 -24 -9 -32 -20 -8 -11 -21 -20 -30 -20 -9 0
-22 -9 -30 -20 -8 -11 -21 -20 -28 -20 -8 0 -27 -13 -42 -30 -15 -16 -33 -30
-40 -30 -7 0 -25 -13 -40 -30 -15 -16 -35 -30 -44 -30 -9 0 -16 -4 -16 -10 0
-5 -7 -10 -15 -10 -19 0 -65 -44 -65 -62 0 -8 -9 -20 -20 -28 -11 -8 -20 -21
-20 -30 0 -9 -9 -22 -20 -30 -11 -8 -20 -22 -20 -32 0 -10 -4 -18 -10 -18 -5
0 -10 -9 -10 -20 0 -11 -4 -20 -10 -20 -5 0 -10 -9 -10 -20 0 -11 -4 -20 -10
-20 -5 0 -10 -20 -10 -45 0 -35 -6 -52 -25 -70 -13 -14 -29 -25 -35 -25 -17 0
-40 -26 -40 -44 0 -9 -4 -16 -10 -16 -5 0 -10 -13 -10 -30 0 -16 -4 -30 -10
-30 -5 0 -10 -22 -10 -50 0 -27 -4 -50 -10 -50 -5 0 -10 -13 -10 -30 0 -16 -4
-30 -10 -30 -5 0 -10 -18 -10 -40 0 -22 -4 -40 -10 -40 -5 0 -10 -18 -10 -40
0 -22 -4 -40 -10 -40 -6 0 -10 -37 -10 -90 0 -53 -4 -90 -10 -90 -6 0 -10 -33
-10 -80 0 -47 -4 -80 -10 -80 -6 0 -10 -47 -10 -120 0 -73 -4 -120 -10 -120
-6 0 -10 -113 -10 -320 0 -207 4 -320 10 -320 6 0 10 -47 10 -120 0 -73 4
-120 10 -120 6 0 10 -50 10 -130 0 -80 4 -130 10 -130 6 0 10 -53 10 -140 0
-87 4 -140 10 -140 6 0 10 -13 10 -30 0 -16 5 -30 10 -30 6 0 10 -9 10 -20 0
-11 5 -20 10 -20 6 0 10 -18 10 -40 0 -22 5 -40 10 -40 6 0 10 -13 10 -30 0
-16 5 -30 10 -30 6 0 10 -9 10 -20 0 -11 5 -20 10 -20 6 0 10 -13 10 -28 0
-16 8 -34 20 -42 11 -8 20 -20 20 -28 0 -7 22 -35 50 -62 27 -27 50 -54 50
-59 0 -15 287 -301 301 -301 6 0 24 -13 39 -30 15 -16 35 -30 44 -30 9 0 16
-4 16 -10 0 -5 8 -10 18 -10 10 0 24 -9 32 -20 8 -12 26 -20 42 -20 15 0 28
-4 28 -10 0 -5 9 -10 20 -10 11 0 20 -4 20 -10 0 -5 9 -10 20 -10 11 0 20 -4
20 -10 0 -5 14 -10 30 -10 17 0 30 -4 30 -10 0 -5 14 -10 30 -10 17 0 30 -4
30 -10 0 -5 9 -10 20 -10 11 0 20 -4 20 -10 0 -5 8 -10 18 -10 10 0 24 -9 32
-20 8 -12 26 -20 42 -20 15 0 28 -4 28 -10 0 -5 18 -10 40 -10 22 0 40 -4 40
-10 0 -5 23 -10 50 -10 28 0 50 -4 50 -10 0 -5 18 -10 40 -10 22 0 40 -4 40
-10 0 -5 9 -10 20 -10 11 0 20 -4 20 -10 0 -6 47 -10 120 -10 73 0 120 -4 120
-10 0 -5 9 -10 20 -10 11 0 20 -4 20 -10 0 -6 43 -10 110 -10 67 0 110 4 110
10 0 6 18 10 40 10 22 0 40 -4 40 -10 0 -5 23 -10 50 -10 28 0 50 -4 50 -10 0
-15 97 -13 103 3 4 9 8 8 17 -3 9 -11 13 -12 17 -2 6 15 303 18 303 2 0 -7
173 -10 500 -10 327 0 500 -3 500 -10 0 -6 50 -10 130 -10 80 0 130 -4 130
-10 0 -6 53 -10 140 -10 87 0 140 -4 140 -10 0 -5 14 -10 30 -10 17 0 30 5 30
10 0 15 57 12 63 -2 4 -10 8 -9 17 2 9 11 13 12 17 3 6 -15 43 -17 43 -3 0 6
18 10 40 10 22 0 40 -4 40 -10 0 -16 357 -13 363 3 4 9 8 8 17 -3 9 -11 13
-12 17 -2 6 14 43 16 43 2 0 -5 14 -10 30 -10 17 0 30 5 30 10 0 6 18 10 40
10 22 0 40 -4 40 -10 0 -14 37 -12 44 3 5 9 7 9 12 0 4 -9 37 -13 115 -13 66
0 109 -4 109 -10 0 -6 73 -10 200 -10 127 0 200 4 200 10 0 6 14 10 30 10 17
0 30 -4 30 -10 0 -5 23 -10 50 -10 28 0 50 5 50 10 0 6 53 10 140 10 87 0 140
4 140 10 0 6 23 10 50 10 28 0 50 5 50 10 0 6 27 10 60 10 33 0 60 4 60 10 0
6 18 10 40 10 22 0 40 5 40 10 0 6 9 10 20 10 11 0 20 5 20 10 0 6 8 10 18 10
10 0 24 9 32 20 8 11 21 20 30 20 9 0 22 9 30 20 8 11 22 20 32 20 10 0 18 7
18 16 0 8 7 23 16 31 13 14 17 14 26 2 7 -11 11 -11 15 -1 2 6 11 12 19 12 19
0 184 166 184 185 0 8 5 15 10 15 6 0 10 9 10 20 0 11 5 20 10 20 6 0 10 8 10
18 0 10 9 24 20 32 12 8 20 26 20 42 0 15 5 28 10 28 6 0 10 9 10 20 0 11 5
20 10 20 6 0 10 9 10 20 0 11 5 20 10 20 6 0 10 18 10 40 0 22 5 40 10 40 6 0
10 14 10 30 0 17 5 30 10 30 6 0 10 23 10 50 0 28 5 50 10 50 6 0 10 14 10 30
0 17 5 30 10 30 6 0 10 30 10 70 0 40 4 70 10 70 6 0 10 30 10 70 0 40 4 70
10 70 6 0 10 27 10 60 0 33 4 60 10 60 6 0 10 40 10 99 0 70 4 101 13 104 9 4
8 8 -3 17 -11 9 -12 13 -2 17 8 3 12 32 12 94 0 53 4 89 10 89 6 0 10 18 10
40 0 22 5 40 10 40 6 0 10 73 10 200 0 127 -4 200 -10 200 -6 0 -10 63 -10
169 0 126 -3 171 -12 174 -10 4 -9 8 2 17 11 9 12 13 3 17 -10 3 -13 42 -13
144 0 86 -4 139 -10 139 -6 0 -10 33 -10 79 0 54 -4 81 -12 85 -10 5 -10 7 0
12 14 7 16 44 2 44 -5 0 -10 14 -10 30 0 17 -4 30 -10 30 -5 0 -10 14 -10 30
0 17 -4 30 -10 30 -5 0 -10 18 -10 40 0 22 -4 40 -10 40 -5 0 -10 18 -10 40 0
22 5 40 10 40 6 0 10 14 10 30 0 17 -4 30 -10 30 -5 0 -10 14 -10 30 0 17 -4
30 -10 30 -5 0 -10 14 -10 30 0 17 -4 30 -10 30 -5 0 -10 9 -10 20 0 11 -4 20
-10 20 -5 0 -10 8 -10 18 0 10 -9 24 -20 32 -11 8 -20 21 -20 28 0 7 -18 31
-40 52 -22 21 -40 45 -40 52 0 7 -9 20 -20 28 -11 8 -20 21 -20 28 0 7 -18 31
-40 52 -22 21 -40 46 -40 54 0 9 -8 16 -20 16 -11 0 -20 5 -20 10 0 6 -7 10
-16 10 -9 0 -29 14 -44 30 -15 17 -34 30 -42 30 -7 0 -20 9 -28 20 -8 11 -20
20 -28 20 -15 0 -82 65 -82 80 0 17 -26 40 -44 40 -9 0 -16 5 -16 10 0 6 -9
10 -20 10 -11 0 -20 5 -20 10 0 6 -9 10 -20 10 -11 0 -20 5 -20 10 0 6 -13 10
-30 10 -16 0 -30 5 -30 10 0 6 -13 10 -30 10 -16 0 -30 5 -30 10 0 6 -22 10
-48 10 -36 0 -51 5 -62 20 -11 15 -26 20 -62 20 -26 0 -48 5 -48 10 0 6 -18
10 -40 10 -22 0 -40 5 -40 10 0 6 -13 10 -30 10 -16 0 -30 5 -30 10 0 6 -33
10 -80 10 -47 0 -80 4 -80 10 0 6 -37 10 -90 10 -53 0 -90 4 -90 10 0 6 -30
10 -70 10 -40 0 -70 4 -70 10 0 15 -77 12 -84 -2 -5 -10 -7 -10 -12 0 -4 9
-45 12 -155 12 -93 0 -149 4 -149 10 0 15 -157 13 -164 -2 -5 -10 -7 -10 -12
0 -3 7 -25 12 -55 12 -27 0 -49 5 -49 10 0 6 -57 10 -150 10 -93 0 -150 4
-150 10 0 6 -63 10 -170 10 -107 0 -170 4 -170 10 0 6 -30 10 -70 10 -40 0
-70 -4 -70 -10 0 -6 -60 -10 -160 -10 -100 0 -160 4 -160 10 0 6 -18 10 -40
10 -22 0 -40 -4 -40 -10 0 -6 -46 -10 -119 -10 -86 0 -121 -4 -125 -12 -5 -10
-7 -10 -12 0 -3 6 -18 12 -34 12 -16 0 -31 -6 -34 -12 -5 -10 -7 -10 -12 0 -4
8 -35 12 -105 12 -59 0 -99 4 -99 10 0 6 -22 10 -50 10 -27 0 -50 -4 -50 -10
0 -5 -22 -10 -50 -10 -27 0 -50 5 -50 10 0 15 -57 12 -64 -2 -5 -10 -7 -10
-12 0 -3 6 -18 12 -34 12 -16 0 -31 -6 -34 -12 -5 -10 -7 -10 -12 0 -7 14 -44
16 -44 2 0 -5 -18 -10 -40 -10 -22 0 -40 5 -40 10 0 15 -57 12 -64 -2 -5 -10
-7 -10 -12 0 -3 7 -25 12 -55 12 -27 0 -49 5 -49 10 0 6 -9 10 -20 10 -11 0
-20 -4 -20 -10z m140 -240 c0 -6 133 -10 380 -10 247 0 380 -4 380 -10 0 -6
57 -10 150 -10 93 0 150 4 150 10 0 7 167 10 480 10 313 0 480 -3 480 -10 0
-6 47 -10 120 -10 73 0 120 -4 120 -10 0 -6 53 -10 140 -10 87 0 140 -4 140
-10 0 -6 47 -10 120 -10 73 0 120 -4 120 -10 0 -6 67 -10 180 -10 113 0 180
-4 180 -10 0 -6 30 -10 70 -10 40 0 70 -4 70 -10 0 -6 30 -10 70 -10 40 0 70
-4 70 -10 0 -6 27 -10 60 -10 33 0 60 -4 60 -10 0 -6 27 -10 60 -10 33 0 60
-4 60 -10 0 -6 30 -10 70 -10 63 0 70 -2 70 -20 0 -13 7 -20 20 -20 11 0 20
-4 20 -10 0 -5 9 -10 20 -10 13 0 20 -7 20 -20 0 -12 7 -20 16 -20 9 0 29 -13
44 -30 15 -16 33 -30 40 -30 7 0 25 -13 40 -30 15 -16 33 -30 39 -30 15 0 101
-86 101 -100 0 -6 23 -33 50 -60 28 -27 50 -54 50 -60 0 -6 18 -29 40 -50 26
-25 40 -47 40 -64 0 -14 5 -26 10 -26 6 0 10 -37 10 -90 0 -53 4 -90 10 -90 6
0 10 -22 10 -50 0 -27 -4 -50 -10 -50 -5 0 -10 9 -10 20 0 11 -4 20 -10 20 -5
0 -10 9 -10 20 0 11 -4 20 -10 20 -5 0 -10 8 -10 18 0 10 -9 24 -20 32 -12 8
-20 26 -20 42 0 15 -4 28 -10 28 -5 0 -10 9 -10 20 0 11 -4 20 -10 20 -5 0
-10 7 -10 15 0 18 -84 105 -100 105 -6 0 -42 32 -80 70 -60 61 -74 70 -105 70
-19 0 -35 5 -35 10 0 6 -18 10 -40 10 -29 0 -40 4 -40 15 0 20 -65 85 -85 85
-8 0 -15 5 -15 10 0 6 -9 10 -20 10 -11 0 -20 5 -20 10 0 6 -9 10 -20 10 -11
0 -20 5 -20 10 0 6 -9 10 -20 10 -11 0 -20 5 -20 10 0 6 -18 10 -40 10 -22 0
-40 5 -40 10 0 6 -18 10 -40 10 -22 0 -40 5 -40 10 0 6 -18 10 -40 10 -22 0
-40 5 -40 10 0 6 -27 10 -60 10 -33 0 -60 4 -60 10 0 6 -30 10 -70 10 -40 0
-70 4 -70 10 0 6 -80 10 -220 10 -140 0 -220 4 -220 10 0 6 -26 10 -59 10 -38
0 -61 4 -64 13 -4 9 -8 8 -17 -3 -9 -11 -13 -12 -17 -2 -2 6 -17 12 -33 12
-16 0 -31 -6 -34 -12 -5 -10 -7 -10 -12 0 -4 8 -37 12 -115 12 -66 0 -109 4
-109 10 0 6 -43 10 -109 10 -78 0 -111 4 -115 13 -5 10 -7 10 -12 0 -7 -16
-284 -19 -284 -3 0 6 -50 10 -130 10 -80 0 -130 4 -130 10 0 6 -22 10 -50 10
-27 0 -50 5 -50 10 0 15 -77 12 -84 -2 -5 -10 -7 -10 -12 0 -4 7 -27 12 -65
12 -33 0 -59 4 -59 10 0 6 -30 10 -70 10 -40 0 -70 -4 -70 -10 0 -5 -22 -10
-50 -10 -27 0 -50 5 -50 10 0 6 -46 10 -119 10 -86 0 -121 4 -125 13 -5 10 -7
10 -12 0 -7 -15 -64 -18 -64 -3 0 6 -22 10 -50 10 -27 0 -50 5 -50 10 0 6 -33
10 -80 10 -47 0 -80 -4 -80 -10 0 -6 -37 -10 -90 -10 -53 0 -90 4 -90 10 0 6
-87 10 -240 10 -153 0 -240 -4 -240 -10 0 -6 -30 -10 -69 -10 -46 0 -71 -4
-74 -12 -4 -10 -8 -9 -17 2 -9 11 -13 12 -17 3 -3 -8 -24 -13 -54 -13 -27 0
-49 -4 -49 -10 0 -5 -13 -10 -30 -10 -16 0 -30 5 -30 10 0 6 -22 10 -49 10
-30 0 -52 5 -55 13 -5 10 -7 10 -12 0 -3 -8 -25 -13 -55 -13 -27 0 -49 -4 -49
-10 0 -6 -33 -10 -80 -10 -47 0 -80 -4 -80 -10 0 -5 -9 -10 -20 -10 -11 0 -20
-4 -20 -10 0 -5 -9 -10 -20 -10 -11 0 -20 -4 -20 -10 0 -5 -7 -10 -16 -10 -22
0 -53 -32 -36 -38 23 -7 12 -22 -18 -22 -16 0 -30 5 -30 10 0 6 -9 10 -20 10
-11 0 -20 5 -20 10 0 6 -27 10 -60 10 -33 0 -60 -4 -60 -10 0 -5 -9 -10 -20
-10 -11 0 -20 -4 -20 -10 0 -5 -9 -10 -20 -10 -11 0 -20 -4 -20 -10 0 -5 -9
-10 -20 -10 -11 0 -20 -4 -20 -10 0 -5 -9 -10 -20 -10 -13 0 -20 -7 -20 -20 0
-13 -7 -20 -20 -20 -11 0 -20 -4 -20 -10 0 -5 -7 -10 -15 -10 -19 0 -85 -64
-85 -82 0 -8 -9 -20 -20 -28 -11 -8 -20 -21 -20 -28 0 -8 -13 -27 -30 -42 -16
-15 -30 -34 -30 -42 0 -7 -9 -20 -20 -28 -11 -8 -20 -22 -20 -32 0 -10 -4 -18
-10 -18 -5 0 -10 -13 -10 -28 0 -16 -8 -34 -20 -42 -12 -8 -20 -26 -20 -42 0
-15 -4 -28 -10 -28 -14 0 -12 -37 3 -44 10 -5 10 -7 0 -12 -8 -3 -13 -25 -13
-55 0 -27 -4 -49 -10 -49 -6 0 -10 -32 -10 -75 l0 -76 45 -44 c35 -36 51 -45
79 -45 19 0 37 -6 40 -12 5 -10 7 -10 12 0 3 6 14 12 25 12 12 0 19 7 19 20 0
11 5 20 10 20 6 0 10 9 10 20 0 11 5 20 10 20 6 0 10 9 10 20 0 11 5 20 10 20
6 0 10 9 10 20 0 11 5 20 10 20 6 0 10 30 10 70 0 40 4 70 10 70 6 0 10 9 10
20 0 11 5 20 10 20 6 0 10 9 10 20 0 11 5 20 10 20 6 0 10 9 10 20 0 11 5 20
10 20 6 0 10 8 10 18 0 10 9 24 20 32 11 8 20 21 20 28 0 8 14 27 30 42 17 15
30 33 30 39 0 17 67 81 85 81 8 0 15 5 15 10 0 6 8 10 18 10 10 0 24 9 32 20
8 11 22 20 32 20 10 0 18 5 18 10 0 6 9 10 20 10 11 0 20 5 20 10 0 6 14 10
30 10 23 0 30 4 30 20 0 11 5 20 10 20 6 0 10 14 10 30 0 17 3 30 6 30 3 0 19
-13 34 -30 26 -28 32 -30 104 -30 44 0 76 4 76 10 0 6 23 10 50 10 28 0 50 5
50 10 0 6 30 10 69 10 46 0 71 4 75 13 5 10 7 10 12 0 7 -16 264 -19 264 -3 0
6 27 10 60 10 33 0 60 4 60 10 0 6 33 10 79 10 54 0 81 4 84 13 4 9 8 8 17 -3
9 -11 13 -12 17 -2 6 14 83 17 83 2 0 -6 83 -10 230 -10 147 0 230 4 230 10 0
6 9 10 20 10 11 0 20 -4 20 -10 0 -6 27 -10 60 -10 33 0 60 -4 60 -10 0 -6 50
-10 130 -10 80 0 130 -4 130 -10 0 -6 80 -10 220 -10 140 0 220 -4 220 -10 0
-6 30 -10 70 -10 40 0 70 -4 70 -10 0 -6 40 -10 100 -10 60 0 100 -4 100 -10
0 -15 57 -12 64 3 5 10 7 10 12 0 4 -10 67 -13 265 -13 166 0 259 -4 259 -10
0 -6 37 -10 90 -10 53 0 90 -4 90 -10 0 -6 40 -10 100 -10 60 0 100 -4 100
-10 0 -5 -9 -10 -20 -10 -12 0 -20 -7 -20 -16 0 -9 -13 -29 -30 -44 -16 -15
-30 -35 -30 -44 0 -9 -7 -16 -16 -16 -19 0 -44 -24 -44 -42 0 -8 -9 -20 -20
-28 -11 -8 -20 -21 -20 -30 0 -9 -9 -22 -20 -30 -11 -8 -20 -22 -20 -32 0 -10
-4 -18 -10 -18 -5 0 -10 -18 -10 -40 0 -44 -8 -50 -30 -20 -15 21 -50 28 -50
10 0 -6 -30 -10 -70 -10 -40 0 -70 -4 -70 -10 0 -5 -7 -10 -16 -10 -8 0 -33
-18 -55 -41 l-39 -41 -39 41 c-31 32 -47 41 -73 41 -22 0 -39 7 -48 20 -11 15
-26 20 -62 20 -26 0 -48 -4 -48 -10 0 -5 -11 -10 -25 -10 -26 0 -95 -59 -95
-80 0 -11 -45 -60 -55 -60 -3 0 -5 12 -5 26 0 33 -21 54 -54 54 -14 0 -26 5
-26 10 0 6 -9 10 -20 10 -11 0 -20 5 -20 10 0 6 -18 10 -40 10 -22 0 -40 -4
-40 -10 0 -5 -13 -10 -28 -10 -16 0 -34 -8 -42 -20 -18 -25 -30 -26 -30 -2 0
10 -9 24 -20 32 -11 8 -20 22 -20 32 0 11 -7 18 -20 18 -11 0 -20 5 -20 10 0
6 -8 10 -18 10 -10 0 -24 9 -32 20 -12 17 -26 20 -82 20 -59 0 -68 -2 -68 -18
0 -10 -9 -24 -20 -32 -11 -8 -20 -21 -20 -28 0 -8 -13 -27 -30 -42 -16 -15
-30 -35 -30 -44 0 -9 -7 -16 -16 -16 -18 0 -44 23 -44 40 0 21 -69 80 -95 80
-14 0 -25 5 -25 10 0 6 -9 10 -20 10 -11 0 -20 5 -20 10 0 6 -9 10 -20 10 -11
0 -20 5 -20 10 0 6 -33 10 -80 10 -47 0 -80 -4 -80 -10 0 -5 -13 -10 -29 -10
-16 0 -32 -6 -35 -12 -5 -10 -7 -10 -12 0 -8 17 -24 15 -24 -4 0 -20 -24 -44
-44 -44 -9 0 -16 7 -16 16 0 26 -26 44 -64 44 -26 0 -36 4 -36 16 0 8 -6 22
-14 30 -17 16 -66 19 -66 4 0 -5 -13 -10 -28 -10 -16 0 -34 -8 -42 -20 -8 -11
-22 -20 -32 -20 -11 0 -18 -7 -18 -18 0 -10 -9 -24 -20 -32 -11 -8 -20 -20
-20 -28 0 -13 -23 -42 -34 -42 -3 0 -6 14 -6 30 0 17 -4 30 -10 30 -5 0 -10 7
-10 16 0 25 -26 44 -61 44 -20 0 -39 8 -52 23 -13 15 -21 18 -24 10 -3 -8 -23
-13 -50 -13 -46 0 -73 -16 -73 -44 0 -9 -4 -16 -10 -16 -5 0 -10 -9 -10 -20 0
-11 -4 -20 -10 -20 -5 0 -10 -9 -10 -20 0 -11 -4 -20 -10 -20 -5 0 -10 -13
-10 -30 0 -16 -4 -30 -10 -30 -5 0 -10 -13 -10 -30 0 -16 5 -30 10 -30 6 0 10
-13 10 -30 0 -16 5 -30 10 -30 6 0 10 -18 10 -40 0 -37 2 -40 28 -40 16 0 34
-8 42 -20 8 -11 22 -20 32 -20 10 0 18 -4 18 -10 0 -5 9 -10 20 -10 11 0 20
-4 20 -10 0 -6 30 -10 70 -10 40 0 70 4 70 10 0 6 18 10 40 10 22 0 40 5 40
10 0 6 14 10 30 10 17 0 30 5 30 10 0 6 18 10 40 10 22 0 40 -4 40 -10 0 -5 9
-10 20 -10 11 0 20 -4 20 -10 0 -5 18 -10 39 -10 22 0 42 -6 45 -12 5 -10 7
-10 12 0 3 6 21 12 41 12 26 0 42 -8 63 -30 21 -22 37 -30 63 -30 20 0 37 -6
39 -12 6 -16 38 14 38 34 0 8 9 20 20 28 11 8 20 22 20 32 0 10 5 18 10 18 6
0 10 9 10 20 0 11 5 20 10 20 6 0 10 7 10 16 0 15 23 44 34 44 3 0 6 -8 6 -18
0 -10 9 -24 20 -32 11 -8 20 -22 20 -32 0 -11 7 -18 20 -18 11 0 20 -4 20 -10
0 -5 8 -10 18 -10 10 0 24 -9 32 -20 8 -11 22 -20 32 -20 10 0 18 -4 18 -10 0
-5 18 -10 40 -10 22 0 40 -4 40 -10 0 -5 9 -10 20 -10 11 0 20 5 20 10 0 6 13
10 28 10 16 0 34 8 42 20 15 21 50 28 50 10 0 -5 7 -10 16 -10 26 0 44 -26 44
-63 0 -20 6 -38 13 -41 10 -5 10 -7 0 -12 -10 -4 -13 -54 -13 -201 0 -217 -2
-223 -64 -223 -20 0 -36 -4 -36 -10 0 -5 -7 -10 -15 -10 -9 0 -27 -11 -40 -25
-41 -40 -28 -115 19 -115 9 0 16 -4 16 -10 0 -5 18 -10 40 -10 l40 0 0 -50 c0
-27 -4 -50 -10 -50 -5 0 -10 -22 -10 -50 0 -27 5 -50 10 -50 6 0 10 -4 10 -10
0 -5 -9 -10 -20 -10 -17 0 -20 -7 -20 -40 0 -22 -4 -40 -10 -40 -5 0 -10 -13
-10 -30 0 -16 -4 -30 -10 -30 -5 0 -10 -18 -10 -40 0 -22 -4 -40 -10 -40 -5 0
-10 -13 -10 -30 0 -16 -4 -30 -10 -30 -5 0 -10 -9 -10 -20 0 -11 -4 -20 -10
-20 -5 0 -10 -9 -10 -20 0 -11 -4 -20 -10 -20 -5 0 -10 -9 -10 -20 0 -11 -4
-20 -10 -20 -5 0 -10 -9 -10 -20 0 -11 -4 -20 -10 -20 -5 0 -10 -13 -10 -30 0
-23 -4 -30 -20 -30 -11 0 -20 5 -20 10 0 6 -18 10 -40 10 -22 0 -40 -4 -40
-10 0 -5 -21 -10 -46 -10 -47 0 -74 -16 -74 -44 0 -9 -4 -16 -10 -16 -5 0 -10
-9 -10 -20 0 -11 5 -20 10 -20 6 0 10 -7 10 -16 0 -20 24 -44 43 -44 9 0 18
-6 21 -12 5 -10 7 -10 12 0 7 14 44 16 44 2 0 -5 9 -10 20 -10 11 0 20 -4 20
-10 0 -5 -4 -10 -10 -10 -5 0 -10 -13 -10 -28 0 -16 -8 -34 -20 -42 -11 -8
-20 -22 -20 -32 0 -24 -32 -23 -50 2 -8 11 -22 20 -31 20 -10 0 -20 6 -22 13
-4 9 -8 8 -17 -3 -9 -11 -13 -12 -17 -2 -2 6 -18 12 -34 12 -16 0 -29 5 -29
10 0 6 -9 10 -20 10 -11 0 -20 5 -20 10 0 6 -18 10 -40 10 -22 0 -40 -4 -40
-10 0 -5 -18 -10 -40 -10 -22 0 -40 5 -40 10 0 6 -22 10 -50 10 -27 0 -50 5
-50 10 0 6 -22 10 -50 10 -27 0 -50 5 -50 10 0 6 -9 10 -20 10 -11 0 -20 -4
-20 -10 0 -5 -9 -10 -20 -10 -11 0 -20 5 -20 10 0 6 -13 10 -30 10 -16 0 -30
-4 -30 -10 0 -6 -27 -10 -60 -10 -33 0 -60 4 -60 10 0 6 -22 10 -50 10 -27 0
-50 5 -50 10 0 6 -22 10 -50 10 -27 0 -50 5 -50 10 0 6 -9 10 -20 10 -11 0
-20 5 -20 10 0 6 -18 10 -40 10 -22 0 -40 5 -40 10 0 6 -9 10 -20 10 -11 0
-20 5 -20 10 0 14 -37 12 -44 -2 -5 -10 -7 -10 -12 0 -7 15 -124 17 -124 2 0
-6 -53 -10 -140 -10 -87 0 -140 4 -140 10 0 6 -9 10 -20 10 -11 0 -20 -4 -20
-10 0 -5 -9 -10 -20 -10 -11 0 -20 5 -20 10 0 6 -18 10 -40 10 -22 0 -40 -4
-40 -10 0 -6 -50 -10 -130 -10 -80 0 -130 -4 -130 -10 0 -6 -33 -10 -80 -10
-47 0 -80 4 -80 10 0 6 -40 10 -100 10 -60 0 -100 -4 -100 -10 0 -5 -22 -10
-50 -10 l-50 0 0 40 c0 22 -4 40 -10 40 -5 0 -10 14 -10 30 0 17 5 30 10 30
16 0 13 237 -2 244 -10 5 -10 7 0 12 6 3 12 23 12 45 0 21 5 39 10 39 6 0 10
-9 10 -20 0 -16 7 -20 30 -20 17 0 30 -4 30 -10 0 -5 14 -10 30 -10 21 0 30
-5 30 -16 0 -20 24 -44 44 -44 9 0 16 -4 16 -10 0 -5 14 -10 30 -10 17 0 30
-4 30 -10 0 -5 9 -10 20 -10 11 0 20 -4 20 -10 0 -5 9 -10 20 -10 11 0 20 -4
20 -10 0 -5 9 -10 20 -10 11 0 20 -4 20 -10 0 -5 14 -10 30 -10 17 0 30 -4 30
-10 0 -5 9 -10 20 -10 11 0 20 -4 20 -10 0 -5 9 -10 20 -10 11 0 20 -4 20 -10
0 -5 14 -10 30 -10 17 0 30 -4 30 -10 0 -5 18 -10 40 -10 22 0 40 -4 40 -10 0
-5 14 -10 30 -10 17 0 30 -4 30 -10 0 -5 14 -10 30 -10 17 0 30 -4 30 -10 0
-5 18 -10 40 -10 22 0 40 -4 40 -10 0 -5 18 -10 40 -10 22 0 40 -4 40 -10 0
-6 50 -10 130 -10 80 0 130 4 130 10 0 6 22 10 48 10 36 0 51 5 62 20 8 11 22
20 32 20 10 0 18 5 18 10 0 6 9 10 20 10 13 0 20 7 20 20 0 12 7 20 16 20 18
0 44 23 44 40 0 6 23 33 50 60 34 33 50 57 50 74 0 14 5 26 10 26 6 0 10 9 10
20 0 11 5 20 10 20 6 0 10 9 10 20 0 11 5 20 10 20 6 0 10 14 10 30 0 17 5 30
10 30 6 0 10 33 10 80 0 47 -4 80 -10 80 -5 0 -10 23 -10 50 0 28 -4 50 -10
50 -5 0 -10 13 -10 28 0 16 -8 34 -20 42 -11 8 -20 22 -20 32 0 10 -4 18 -10
18 -5 0 -10 7 -10 15 0 20 -185 205 -205 205 -8 0 -15 9 -15 20 0 12 -7 20
-16 20 -9 0 -29 14 -44 30 -15 17 -35 30 -44 30 -9 0 -16 5 -16 10 0 6 -9 10
-20 10 -11 0 -20 5 -20 10 0 6 -9 10 -20 10 -11 0 -20 5 -20 10 0 6 -27 10
-60 10 -33 0 -60 4 -60 10 0 6 -47 10 -120 10 -73 0 -120 -4 -120 -10 0 -6
-27 -10 -60 -10 -33 0 -60 -4 -60 -10 0 -5 -18 -10 -40 -10 -22 0 -40 -4 -40
-10 0 -5 -18 -10 -39 -10 -22 0 -42 -5 -44 -12 -4 -10 -8 -9 -17 2 -9 11 -13
12 -17 3 -2 -7 -18 -13 -34 -13 -16 0 -29 -4 -29 -10 0 -5 -13 -10 -30 -10
-16 0 -30 -4 -30 -10 0 -5 -9 -10 -20 -10 -11 0 -20 -4 -20 -10 0 -5 -8 -10
-18 -10 -10 0 -24 -9 -32 -20 -8 -11 -22 -20 -32 -20 -10 0 -18 -4 -18 -10 0
-5 -8 -10 -18 -10 -10 0 -24 -9 -32 -20 -8 -12 -26 -20 -42 -20 -15 0 -28 -4
-28 -10 0 -5 -9 -10 -20 -10 -18 0 -20 7 -20 80 0 47 4 80 10 80 6 0 10 30 10
69 0 46 4 71 13 75 10 5 10 7 0 12 -8 3 -13 25 -13 53 0 35 -5 50 -20 61 -11
8 -20 22 -20 32 0 14 -8 18 -38 18 -26 0 -42 6 -52 20 -15 21 -50 28 -50 10 0
-5 -12 -10 -26 -10 -35 0 -54 -22 -54 -63 0 -20 -6 -38 -12 -41 -10 -5 -10 -7
0 -12 14 -7 16 -44 2 -44 -6 0 -10 -27 -10 -60 0 -33 -4 -60 -10 -60 -5 0 -10
-18 -10 -40 0 -22 5 -40 10 -40 6 0 10 -18 10 -40 0 -22 -4 -40 -10 -40 -6 0
-10 -33 -10 -80 0 -47 -4 -80 -10 -80 -5 0 -10 -18 -10 -40 0 -22 -4 -40 -10
-40 -6 0 -10 -37 -10 -90 0 -53 4 -90 10 -90 6 0 10 -30 10 -69 0 -46 4 -71
13 -75 9 -5 9 -7 0 -12 -10 -4 -13 -49 -13 -175 0 -106 -4 -169 -10 -169 -5 0
-10 -13 -10 -30 0 -16 5 -30 10 -30 6 0 10 -47 10 -120 0 -73 4 -120 10 -120
6 0 10 -22 10 -50 0 -27 5 -50 10 -50 6 0 10 -22 10 -49 0 -30 5 -52 13 -55
10 -5 10 -7 0 -12 -15 -7 -17 -44 -3 -44 6 0 10 -13 10 -30 0 -16 5 -30 10
-30 6 0 10 -13 10 -28 0 -16 8 -34 20 -42 11 -8 20 -25 20 -38 0 -14 13 -36
30 -52 17 -15 30 -33 30 -40 0 -7 14 -25 30 -40 17 -15 30 -35 30 -44 0 -9 7
-16 16 -16 8 0 37 -23 64 -50 27 -28 55 -50 62 -50 8 0 20 -9 28 -20 8 -11 21
-20 30 -20 9 0 22 -9 30 -20 8 -11 20 -20 28 -20 7 0 35 -23 62 -50 27 -28 56
-50 64 -50 9 0 16 -4 16 -10 0 -5 8 -10 18 -10 10 0 24 -9 32 -20 8 -11 22
-20 32 -20 10 0 18 -4 18 -10 0 -5 14 -10 30 -10 17 0 30 -4 30 -10 0 -5 18
-10 40 -10 22 0 40 -4 40 -10 0 -5 9 -10 20 -10 11 0 20 -4 20 -10 0 -5 18
-10 40 -10 22 0 40 -4 40 -10 0 -6 37 -10 90 -10 53 0 90 -4 90 -10 0 -5 18
-10 40 -10 22 0 40 -4 40 -10 0 -5 23 -10 50 -10 28 0 50 -4 50 -10 0 -6 47
-10 120 -10 73 0 120 -4 120 -10 0 -6 27 -10 60 -10 33 0 60 4 60 10 0 6 9 10
19 10 11 0 22 6 25 13 5 9 7 9 12 0 4 -9 29 -13 75 -13 39 0 69 -4 69 -10 0
-6 27 -10 60 -10 33 0 60 4 60 10 0 6 9 10 20 10 11 0 20 -4 20 -10 0 -6 60
-10 160 -10 100 0 160 -4 160 -10 0 -6 37 -10 90 -10 53 0 90 4 90 10 0 6 80
10 220 10 140 0 220 4 220 10 0 6 9 10 20 10 11 0 20 -4 20 -10 0 -5 9 -10 20
-10 11 0 20 5 20 10 0 16 257 13 264 -2 5 -10 7 -10 12 0 7 15 184 17 184 2 0
-6 47 -10 120 -10 73 0 120 -4 120 -10 0 -6 127 -10 360 -10 233 0 360 -4 360
-10 0 -6 70 -10 190 -10 120 0 190 -4 190 -10 0 -6 127 -10 360 -10 233 0 360
4 360 10 0 6 18 10 40 10 22 0 40 5 40 10 0 6 16 10 36 10 38 0 64 18 64 44 0
9 5 16 10 16 6 0 10 9 10 19 0 11 6 21 13 24 8 3 5 11 -10 24 -13 11 -23 28
-23 37 0 12 -10 16 -40 16 -22 0 -40 5 -40 10 0 6 -13 10 -30 10 -16 0 -30 5
-30 10 0 6 -27 10 -60 10 -33 0 -60 -4 -60 -10 0 -5 -13 -10 -29 -10 -16 0
-32 -6 -34 -13 -4 -9 -8 -8 -17 3 -9 11 -13 12 -17 3 -6 -15 -83 -18 -83 -3 0
6 -13 10 -30 10 -16 0 -30 -4 -30 -10 0 -5 -22 -10 -50 -10 -27 0 -50 5 -50
10 0 6 -30 10 -70 10 -40 0 -70 -4 -70 -10 0 -6 -30 -10 -70 -10 -40 0 -70 4
-70 10 0 6 -9 10 -20 10 -11 0 -20 -4 -20 -10 0 -5 -18 -10 -40 -10 -22 0 -40
5 -40 10 0 6 -30 10 -70 10 -40 0 -70 4 -70 10 0 6 -9 10 -20 10 -11 0 -20 -4
-20 -10 0 -5 -22 -10 -50 -10 -27 0 -50 5 -50 10 0 6 -40 10 -99 10 -70 0
-101 4 -105 13 -5 9 -7 9 -12 0 -7 -17 -61 -17 -67 0 -4 9 -8 8 -17 -3 -9 -11
-13 -12 -17 -2 -6 16 -40 16 -47 0 -5 -11 -7 -11 -12 0 -7 14 -84 17 -84 2 0
-6 -27 -10 -60 -10 -33 0 -60 4 -60 10 0 15 -57 12 -64 -2 -5 -10 -7 -10 -12
0 -7 16 -81 16 -88 0 -5 -11 -7 -11 -12 0 -4 7 -27 12 -65 12 -33 0 -59 4 -59
10 0 6 -9 10 -20 10 -11 0 -20 -4 -20 -10 0 -5 -18 -10 -40 -10 -22 0 -40 5
-40 10 0 6 -9 10 -19 10 -11 0 -22 6 -25 13 -5 9 -7 9 -12 0 -4 -8 -27 -13
-64 -13 -37 0 -60 5 -64 13 -5 9 -7 9 -12 0 -7 -15 -104 -18 -104 -3 0 6 -33
10 -80 10 -47 0 -80 -4 -80 -10 0 -6 -50 -10 -129 -10 -94 0 -131 -3 -135 -12
-5 -11 -7 -11 -12 0 -7 14 -104 17 -104 2 0 -5 -13 -10 -30 -10 -16 0 -30 5
-30 10 0 6 -13 10 -30 10 -16 0 -30 -4 -30 -10 0 -16 -277 -13 -284 3 -5 9 -7
9 -12 0 -7 -15 -64 -18 -64 -3 0 15 -97 12 -104 -2 -5 -11 -7 -11 -12 0 -4 7
-27 12 -64 12 -37 0 -60 5 -64 13 -5 9 -7 9 -12 0 -3 -7 -23 -13 -44 -13 -21
0 -41 6 -43 13 -4 9 -8 8 -17 -3 -9 -11 -13 -12 -17 -2 -6 15 -183 17 -183 2
0 -6 -30 -10 -70 -10 -40 0 -70 4 -70 10 0 15 -157 13 -164 -2 -5 -11 -7 -11
-12 0 -3 6 -14 12 -25 12 -10 0 -19 5 -19 10 0 6 -33 10 -80 10 -47 0 -80 4
-80 10 0 6 -33 10 -80 10 -47 0 -80 4 -80 10 0 6 -13 10 -30 10 -16 0 -30 5
-30 10 0 6 -13 10 -30 10 -16 0 -30 5 -30 10 0 6 -9 10 -20 10 -11 0 -20 5
-20 10 0 6 -9 10 -20 10 -11 0 -20 5 -20 10 0 6 -8 10 -18 10 -10 0 -24 9 -32
20 -8 11 -21 20 -28 20 -7 0 -31 18 -52 40 -21 22 -46 40 -54 40 -9 0 -16 5
-16 10 0 6 -7 10 -15 10 -15 0 -65 42 -65 55 0 3 9 5 20 5 11 0 20 -4 20 -10
0 -6 43 -10 110 -10 67 0 110 -4 110 -10 0 -6 73 -10 200 -10 127 0 200 -4
200 -10 0 -5 23 -10 50 -10 28 0 50 -4 50 -10 0 -6 37 -10 90 -10 53 0 90 -4
90 -10 0 -6 33 -10 80 -10 47 0 80 -4 80 -10 0 -6 50 -10 130 -10 80 0 130 4
130 10 0 6 33 10 80 10 47 0 80 -4 80 -10 0 -6 67 -10 180 -10 113 0 180 -4
180 -10 0 -14 37 -12 44 3 5 9 7 9 12 0 4 -8 27 -13 64 -13 37 0 60 5 64 13 5
9 7 9 12 0 3 -8 25 -13 55 -13 27 0 49 -4 49 -10 0 -6 33 -10 80 -10 47 0 80
-4 80 -10 0 -6 47 -10 120 -10 73 0 120 -4 120 -10 0 -5 14 -10 30 -10 17 0
30 5 30 10 0 6 18 10 40 10 22 0 40 -4 40 -10 0 -14 37 -12 44 3 5 9 7 9 12 0
4 -10 55 -13 204 -13 149 0 200 -3 203 -12 4 -10 8 -9 17 2 9 11 13 12 17 3 6
-15 63 -18 63 -3 0 14 37 12 43 -3 4 -9 8 -8 17 3 9 11 13 12 17 3 6 -17 80
-17 87 0 5 9 7 9 12 0 7 -15 44 -17 44 -3 0 16 837 14 844 -2 5 -10 7 -10 12
0 4 9 57 12 214 12 157 0 210 3 214 13 5 9 7 9 12 0 7 -15 44 -17 44 -3 0 6
14 10 30 10 17 0 30 -4 30 -10 0 -5 9 -10 20 -10 11 0 20 5 20 10 0 6 36 10
89 10 62 0 91 4 95 13 5 9 7 9 12 0 4 -10 41 -13 135 -13 79 0 129 -4 129 -10
0 -5 14 -10 30 -10 20 0 30 -5 30 -15 0 -18 -44 -65 -60 -65 -16 0 -100 -87
-100 -105 0 -8 5 -15 10 -15 6 0 10 -7 10 -16 0 -19 24 -44 42 -44 8 0 20 -9
28 -20 8 -11 26 -20 41 -20 15 0 30 -6 33 -12 5 -11 7 -11 12 0 3 7 25 12 55
12 27 0 49 5 49 10 0 6 7 10 15 10 18 0 165 144 165 161 0 6 14 24 30 39 18
17 30 38 30 54 0 14 5 26 10 26 6 0 10 14 10 30 0 17 5 30 10 30 6 0 10 14 10
30 0 17 5 30 10 30 6 0 10 9 10 20 0 11 5 20 10 20 6 0 10 18 10 40 0 22 5 40
10 40 6 0 10 27 10 60 0 33 4 60 10 60 6 0 10 23 10 50 0 28 5 50 10 50 6 0
10 43 10 110 0 67 4 110 10 110 6 0 10 30 10 70 0 40 4 70 10 70 6 0 10 27 10
60 0 33 4 60 10 60 6 0 10 47 10 120 0 73 4 120 10 120 6 0 10 46 10 119 0 86
4 121 13 125 10 5 10 7 0 12 -15 7 -17 44 -3 44 6 0 10 52 10 136 0 109 3 138
15 151 9 8 19 12 23 8 4 -4 1 -10 -5 -12 -15 -5 -17 -43 -3 -43 6 0 10 -26 10
-59 0 -38 5 -61 13 -65 10 -5 10 -7 0 -12 -15 -7 -17 -44 -3 -44 6 0 10 -57
10 -150 0 -93 -4 -150 -10 -150 -6 0 -10 -33 -10 -80 0 -47 -4 -80 -10 -80 -6
0 -10 -26 -10 -59 0 -38 -5 -61 -12 -65 -10 -5 -10 -7 0 -12 14 -7 16 -44 2
-44 -6 0 -10 -37 -10 -90 0 -53 -4 -90 -10 -90 -6 0 -10 -27 -10 -60 0 -33 -4
-60 -10 -60 -5 0 -10 -22 -10 -50 0 -27 -4 -50 -10 -50 -6 0 -10 -33 -10 -80
0 -47 -4 -80 -10 -80 -5 0 -10 -18 -10 -40 0 -22 -4 -40 -10 -40 -5 0 -10 -13
-10 -30 0 -16 -4 -30 -10 -30 -5 0 -10 -13 -10 -30 0 -16 -4 -30 -10 -30 -5 0
-10 -13 -10 -30 0 -16 -4 -30 -10 -30 -5 0 -10 -13 -10 -30 0 -16 -4 -30 -10
-30 -5 0 -10 -13 -10 -30 0 -16 -4 -30 -10 -30 -5 0 -10 -9 -10 -20 0 -11 -4
-20 -10 -20 -5 0 -10 -9 -10 -19 0 -11 -6 -22 -12 -25 -10 -5 -10 -7 0 -12 17
-8 15 -24 -3 -24 -18 0 -105 -84 -105 -100 0 -14 -46 -60 -61 -60 -6 0 -24
-14 -39 -30 -17 -18 -38 -30 -54 -30 -14 0 -26 -4 -26 -10 0 -5 -13 -10 -28
-10 -16 0 -34 -8 -42 -20 -8 -12 -26 -20 -42 -20 -15 0 -28 -4 -28 -10 0 -5
-13 -10 -30 -10 -16 0 -30 -4 -30 -10 0 -5 -22 -10 -50 -10 -27 0 -50 -4 -50
-10 0 -5 -22 -10 -50 -10 -27 0 -50 -4 -50 -10 0 -5 -13 -10 -30 -10 -16 0
-30 5 -30 10 0 6 -9 10 -20 10 -11 0 -20 -4 -20 -10 0 -15 -97 -12 -104 3 -5
10 -7 10 -12 0 -3 -8 -25 -13 -54 -13 -29 0 -51 -5 -54 -12 -5 -11 -7 -11 -12
0 -7 14 -44 16 -44 2 0 -5 -13 -10 -30 -10 -16 0 -30 5 -30 10 0 6 -27 10 -60
10 -33 0 -60 -4 -60 -10 0 -5 -13 -10 -30 -10 -16 0 -30 5 -30 10 0 6 -13 10
-30 10 -16 0 -30 -4 -30 -10 0 -5 -9 -10 -20 -10 -11 0 -20 5 -20 10 0 6 -13
10 -29 10 -16 0 -32 6 -35 13 -5 9 -7 9 -12 0 -7 -16 -144 -18 -144 -3 0 6
-83 10 -230 10 -147 0 -230 -4 -230 -10 0 -5 -9 -10 -20 -10 -11 0 -20 5 -20
10 0 15 -97 13 -103 -2 -4 -10 -8 -9 -17 2 -9 11 -13 12 -17 3 -6 -15 -43 -17
-43 -3 0 6 -33 10 -80 10 -47 0 -80 -4 -80 -10 0 -15 -57 -12 -64 3 -5 10 -7
10 -12 0 -7 -15 -64 -18 -64 -3 0 6 -47 10 -120 10 -73 0 -120 4 -120 10 0 6
-22 10 -50 10 -27 0 -50 5 -50 10 0 6 -9 10 -20 10 -11 0 -20 -4 -20 -10 0 -5
-18 -10 -40 -10 -22 0 -40 5 -40 10 0 6 -87 10 -240 10 -153 0 -240 4 -240 10
0 15 -97 12 -104 -2 -5 -11 -7 -11 -12 0 -7 15 -144 17 -144 2 0 -6 -43 -10
-110 -10 -67 0 -110 4 -110 10 0 6 -33 10 -80 10 -47 0 -80 4 -80 10 0 6 -13
10 -30 10 -16 0 -30 -4 -30 -10 0 -15 -137 -13 -144 3 -5 9 -7 9 -12 0 -3 -7
-14 -13 -25 -13 -10 0 -19 -4 -19 -10 0 -5 -9 -10 -20 -10 -11 0 -20 5 -20 10
0 6 -22 10 -50 10 -27 0 -50 5 -50 10 0 6 -30 10 -69 10 -46 0 -71 4 -75 13
-5 9 -7 9 -12 0 -3 -7 -14 -13 -25 -13 -10 0 -19 -4 -19 -10 0 -5 -22 -10 -50
-10 -27 0 -50 5 -50 10 0 6 -18 10 -40 10 -22 0 -40 5 -40 10 0 6 -9 10 -20
10 -11 0 -20 5 -20 10 0 6 -22 10 -50 10 -27 0 -50 -4 -50 -10 0 -5 -18 -10
-40 -10 -22 0 -40 5 -40 10 0 6 -18 10 -40 10 -22 0 -40 5 -40 10 0 6 -18 10
-40 10 -22 0 -40 5 -40 10 0 6 -13 10 -30 10 -16 0 -30 5 -30 10 0 6 -18 10
-40 10 -22 0 -40 5 -40 10 0 6 -9 10 -20 10 -11 0 -20 5 -20 10 0 6 -9 10 -20
10 -11 0 -20 5 -20 10 0 6 -13 10 -30 10 -16 0 -30 5 -30 10 0 6 -9 10 -20 10
-11 0 -20 5 -20 10 0 6 -9 10 -20 10 -11 0 -20 5 -20 10 0 6 -13 10 -30 10
-16 0 -30 5 -30 10 0 6 -8 10 -18 10 -10 0 -24 9 -32 20 -8 11 -22 20 -32 20
-10 0 -18 5 -18 10 0 6 -9 10 -20 10 -13 0 -20 7 -20 18 0 10 -9 24 -20 32
-11 8 -20 22 -20 32 0 14 -8 18 -36 18 -36 0 -64 18 -64 42 0 8 -9 20 -20 28
-11 8 -20 20 -20 28 0 7 -27 40 -60 72 -33 32 -60 66 -60 74 0 9 -4 16 -10 16
-5 0 -10 9 -10 20 0 11 -4 20 -10 20 -5 0 -10 18 -10 40 0 22 -4 40 -10 40 -5
0 -10 14 -10 30 0 17 -4 30 -10 30 -5 0 -10 9 -10 20 0 11 -4 20 -10 20 -5 0
-10 14 -10 30 0 17 -4 30 -10 30 -6 0 -10 53 -10 140 0 87 -4 140 -10 140 -14
0 -12 37 3 44 9 5 9 7 0 12 -8 3 -13 25 -13 55 0 27 -4 49 -10 49 -5 0 -10 9
-10 20 0 11 5 20 10 20 6 0 10 14 10 30 0 17 -4 30 -10 30 -6 0 -10 53 -10
140 0 87 -4 140 -10 140 -5 0 -10 14 -10 30 0 17 -4 30 -10 30 -5 0 -10 14
-10 30 0 17 5 30 10 30 6 0 10 96 10 269 0 206 3 271 13 274 9 4 8 8 -3 17
-11 9 -12 13 -2 17 8 3 12 26 12 64 0 33 4 59 10 59 6 0 10 23 10 50 0 28 5
50 10 50 6 0 10 43 10 110 0 67 4 110 10 110 6 0 10 18 10 40 0 22 5 40 10 40
6 0 10 14 10 30 0 17 5 30 10 30 6 0 10 14 10 30 0 17 5 30 10 30 6 0 10 23
10 50 0 28 5 50 10 50 6 0 10 14 10 30 0 17 5 30 10 30 6 0 10 9 10 20 0 11 5
20 10 20 14 0 12 38 -2 42 -15 5 13 38 32 38 15 0 60 46 60 62 0 8 9 20 20 28
11 8 20 22 20 32 0 10 5 18 10 18 6 0 10 9 10 20 0 11 5 20 10 20 6 0 10 9 10
20 0 13 7 20 20 20 11 0 20 7 20 15 0 19 44 65 62 65 8 0 20 9 28 20 8 11 25
20 38 20 14 0 36 13 52 30 15 17 34 30 42 30 7 0 20 9 28 20 8 11 21 20 28 20
8 0 27 14 42 30 17 18 38 30 54 30 14 0 26 5 26 10 0 6 9 10 20 10 11 0 20 5
20 10 0 6 14 10 30 10 17 0 30 5 30 10 0 6 18 10 40 10 22 0 40 5 40 10 0 6
27 10 60 10 33 0 60 4 60 10 0 6 27 10 60 10 33 0 60 4 60 10 0 6 33 10 80 10
47 0 80 4 80 10 0 6 50 10 130 10 80 0 130 4 130 10 0 6 60 10 160 10 100 0
160 4 160 10 0 6 43 10 110 10 67 0 110 -4 110 -10z m3180 -500 c0 -5 -9 -10
-20 -10 -11 0 -20 -4 -20 -10 0 -5 -13 -10 -28 -10 -16 0 -34 -8 -42 -20 -8
-11 -22 -20 -32 -20 -10 0 -18 -4 -18 -10 0 -5 -13 -10 -30 -10 -23 0 -30 -4
-30 -20 0 -13 -7 -20 -20 -20 -13 0 -20 -7 -20 -20 0 -11 -7 -20 -15 -20 -19
0 -65 -44 -65 -62 0 -8 -9 -20 -20 -28 -11 -8 -20 -20 -20 -28 0 -7 -12 -25
-26 -39 -21 -21 -28 -23 -36 -12 -7 11 -11 11 -15 2 -2 -7 -18 -13 -34 -13
-35 0 -40 28 -9 50 11 8 20 20 20 28 0 7 23 35 50 62 28 27 50 54 50 60 0 14
66 80 81 80 6 0 24 14 39 30 15 17 35 30 44 30 9 0 16 5 16 10 0 6 40 10 100
10 60 0 100 -4 100 -10z m260 -40 c0 -5 -4 -10 -10 -10 -5 0 -10 5 -10 10 0 6
5 10 10 10 6 0 10 -4 10 -10z m340 -80 c0 -36 -4 -37 -35 -5 -32 31 -31 35 5
35 27 0 30 -3 30 -30z m-320 -80 c0 -5 9 -10 20 -10 13 0 20 -7 20 -20 0 -12
7 -20 16 -20 8 0 22 -6 30 -14 8 -8 14 -22 14 -30 0 -9 5 -16 10 -16 6 0 10
-13 10 -30 0 -16 5 -30 10 -30 6 0 10 -33 10 -80 0 -44 -2 -80 -5 -80 -13 0
-55 50 -55 65 0 8 -9 15 -20 15 -11 0 -20 5 -20 10 0 6 -13 10 -28 10 -16 0
-34 8 -42 20 -8 11 -22 20 -32 20 -10 0 -18 5 -18 10 0 6 -13 10 -30 10 -16 0
-30 -4 -30 -10 0 -5 -13 -10 -28 -10 -16 0 -34 -8 -42 -20 -8 -11 -26 -20 -41
-20 -15 0 -30 -6 -33 -12 -5 -10 -7 -10 -12 0 -3 6 -17 12 -31 12 -48 0 -69
44 -33 70 11 8 20 20 20 28 0 18 66 82 85 82 8 0 15 5 15 10 0 6 9 10 20 10
11 0 20 5 20 10 0 6 23 10 50 10 28 0 50 -4 50 -10 0 -18 55 -11 70 10 15 21
30 26 30 10z m475 -95 c36 -35 65 -71 65 -80 0 -8 5 -15 10 -15 6 0 10 -9 10
-20 0 -11 5 -20 10 -20 6 0 10 -9 10 -20 0 -11 -4 -20 -10 -20 -5 0 -10 -22
-10 -50 0 -27 -4 -50 -10 -50 -15 0 -12 -57 3 -64 10 -5 10 -7 0 -12 -7 -3
-13 -14 -13 -25 0 -10 -4 -19 -10 -19 -5 0 -10 -13 -10 -28 0 -16 -8 -34 -20
-42 -12 -8 -20 -26 -20 -42 0 -15 -4 -28 -10 -28 -5 0 -10 -13 -10 -30 0 -16
-4 -30 -10 -30 -5 0 -10 -13 -10 -28 0 -16 -8 -34 -20 -42 -11 -8 -20 -22 -20
-32 0 -10 -4 -18 -10 -18 -5 0 -10 -7 -10 -15 0 -20 -125 -145 -145 -145 -8 0
-15 -4 -15 -10 0 -5 -9 -10 -20 -10 -11 0 -20 -4 -20 -10 0 -5 -9 -10 -20 -10
-11 0 -20 -4 -20 -10 0 -5 -13 -10 -30 -10 -16 0 -30 -4 -30 -10 0 -6 -30 -10
-70 -10 -40 0 -70 -4 -70 -10 0 -5 -9 -10 -20 -10 -11 0 -20 5 -20 10 0 6 -9
10 -20 10 -11 0 -20 -4 -20 -10 0 -5 -9 -10 -20 -10 -11 0 -20 5 -20 10 0 6 9
10 20 10 11 0 20 5 20 10 0 6 9 10 20 10 11 0 20 5 20 10 0 6 7 10 15 10 20 0
105 85 105 105 0 8 9 15 20 15 11 0 20 5 20 10 0 6 9 10 20 10 11 0 20 5 20
10 0 6 9 10 20 10 11 0 20 5 20 10 0 6 9 10 20 10 11 0 20 5 20 10 0 6 7 10
15 10 19 0 65 44 65 62 0 8 9 20 20 28 11 8 20 25 20 38 0 14 13 36 30 52 17
15 30 34 30 42 0 7 9 20 20 28 12 8 20 26 20 42 0 15 5 28 10 28 6 0 10 27 10
60 0 33 4 60 10 60 6 0 10 43 10 110 0 67 -4 110 -10 110 -5 0 -10 9 -10 20 0
11 -4 20 -10 20 -5 0 -10 9 -10 20 0 11 -4 20 -10 20 -5 0 -10 9 -10 20 0 35
29 22 95 -45z m-2635 -145 c0 -5 -4 -10 -10 -10 -5 0 -10 5 -10 10 0 6 5 10
10 10 6 0 10 -4 10 -10z m3106 -144 c16 -17 20 -106 4 -106 -5 0 -10 18 -10
40 0 22 -4 40 -10 40 -5 0 -10 9 -10 20 0 24 6 25 26 6z m-2100 -100 c8 -8 14
-22 14 -30 0 -9 8 -16 20 -16 16 0 20 -7 20 -30 0 -28 -2 -30 -38 -30 -26 0
-42 -6 -52 -20 -8 -12 -26 -20 -42 -20 -15 0 -28 -4 -28 -10 0 -5 -13 -10 -30
-10 -16 0 -30 -4 -30 -10 0 -5 -9 -10 -20 -10 -11 0 -20 -4 -20 -10 0 -5 -9
-10 -20 -10 -11 0 -20 -4 -20 -10 0 -5 -7 -10 -15 -10 -9 0 -31 -16 -50 -35
-19 -19 -35 -41 -35 -50 0 -8 -9 -15 -20 -15 -13 0 -20 -7 -20 -20 0 -11 -4
-20 -10 -20 -5 0 -10 -9 -10 -20 0 -11 -4 -20 -10 -20 -5 0 -10 -9 -10 -20 0
-11 -4 -20 -10 -20 -5 0 -10 -9 -10 -20 0 -11 -4 -20 -10 -20 -5 0 -10 -18
-10 -40 0 -33 3 -40 20 -40 16 0 20 -7 20 -30 0 -28 2 -30 40 -30 22 0 40 -4
40 -10 0 -5 9 -10 20 -10 11 0 20 -4 20 -10 0 -5 9 -10 20 -10 11 0 20 5 20
10 0 6 11 10 25 10 37 0 75 42 75 82 0 22 7 39 20 48 13 9 20 26 20 48 0 39
38 82 72 82 13 0 30 9 38 20 8 11 22 20 32 20 10 0 18 5 18 10 0 6 9 10 20 10
11 0 20 5 20 10 0 6 9 10 20 10 11 0 20 5 20 10 0 15 29 12 46 -4 24 -25 17
-46 -16 -46 -16 0 -30 -4 -30 -10 0 -5 -9 -10 -20 -10 -11 0 -20 -4 -20 -10 0
-5 -12 -10 -26 -10 -29 0 -54 -21 -54 -44 0 -9 -7 -16 -16 -16 -18 0 -44 -24
-44 -40 0 -7 -13 -25 -30 -40 -16 -15 -30 -34 -30 -42 0 -7 -9 -20 -20 -28
-11 -8 -20 -22 -20 -32 0 -10 -4 -18 -10 -18 -5 0 -10 -9 -10 -20 0 -11 -4
-20 -10 -20 -5 0 -10 -13 -10 -30 0 -16 -4 -30 -10 -30 -6 0 -10 -27 -10 -60
0 -33 4 -60 10 -60 6 0 10 9 10 20 0 11 5 20 10 20 6 0 10 -11 10 -25 0 -29
51 -88 58 -67 6 19 56 14 72 -8 16 -22 46 -27 52 -8 3 9 10 8 23 -5 15 -16 16
-20 4 -27 -11 -7 -9 -13 9 -28 12 -11 22 -31 22 -46 0 -19 5 -26 20 -26 11 0
20 -4 20 -10 0 -5 18 -10 40 -10 22 0 40 -4 40 -10 0 -5 9 -10 19 -10 11 0 22
-6 25 -12 5 -10 7 -10 12 0 3 6 14 12 25 12 10 0 19 5 19 10 0 6 9 10 20 10
18 0 20 7 20 58 0 46 4 60 20 72 11 8 20 22 20 32 0 10 5 18 10 18 6 0 10 9
10 20 0 11 5 20 10 20 6 0 10 9 10 20 0 13 7 20 20 20 16 0 20 7 20 30 0 23 4
30 20 30 13 0 20 7 20 20 0 13 7 20 18 20 10 0 24 9 32 20 15 21 70 28 70 10
0 -5 14 -10 30 -10 17 0 30 -4 30 -10 0 -5 23 -10 50 -10 28 0 50 -4 50 -10 0
-5 14 -10 30 -10 17 0 30 -4 30 -10 0 -5 14 -10 30 -10 17 0 30 -4 30 -10 0
-6 47 -10 120 -10 73 0 120 4 120 10 0 6 27 10 60 10 33 0 60 4 60 10 0 6 30
10 70 10 40 0 70 4 70 10 0 6 14 10 30 10 17 0 30 5 30 10 0 6 14 10 30 10 17
0 30 5 30 10 0 6 9 10 20 10 11 0 20 5 20 10 0 6 9 10 20 10 11 0 20 5 20 10
0 6 7 10 16 10 9 0 29 14 44 30 15 17 33 30 39 30 15 0 101 86 101 101 0 6 14
24 30 39 17 15 30 33 30 40 0 12 24 40 34 40 12 0 6 -38 -6 -44 -10 -5 -10 -7
0 -12 14 -7 17 -84 2 -84 -6 0 -10 -37 -10 -90 0 -53 -4 -90 -10 -90 -6 0 -10
-80 -10 -220 0 -140 -4 -220 -10 -220 -6 0 -10 -30 -10 -70 0 -40 -4 -70 -10
-70 -6 0 -10 -47 -10 -120 0 -73 -4 -120 -10 -120 -5 0 -10 -22 -10 -50 0 -27
-4 -50 -10 -50 -6 0 -10 -26 -10 -59 0 -38 -4 -61 -12 -64 -10 -4 -9 -8 2 -17
11 -9 12 -13 3 -17 -7 -2 -13 -18 -13 -34 0 -22 -5 -29 -20 -29 -11 0 -20 5
-20 10 0 6 -40 10 -99 10 -70 0 -101 4 -105 13 -5 10 -7 10 -12 0 -7 -15 -44
-17 -44 -3 0 6 -43 10 -110 10 -67 0 -110 4 -110 10 0 6 -9 10 -20 10 -11 0
-20 -4 -20 -10 0 -5 -13 -10 -30 -10 -16 0 -30 5 -30 10 0 6 -18 10 -40 10
-22 0 -40 -4 -40 -10 0 -15 -97 -12 -104 3 -5 9 -7 9 -12 0 -7 -15 -84 -18
-84 -3 0 6 -22 10 -50 10 -27 0 -50 -4 -50 -10 0 -15 -57 -12 -63 3 -4 9 -8 8
-17 -3 -9 -11 -13 -12 -17 -2 -3 7 -24 12 -54 12 -27 0 -49 5 -49 10 0 6 -22
10 -50 10 -27 0 -50 5 -50 10 0 6 -13 10 -30 10 -16 0 -30 5 -30 10 0 6 -13
10 -29 10 -16 0 -32 6 -34 13 -4 9 -8 8 -17 -3 -9 -11 -13 -12 -17 -2 -6 15
-103 17 -103 2 0 -5 -13 -10 -30 -10 -16 0 -30 -4 -30 -10 0 -5 -22 -10 -50
-10 -27 0 -50 -4 -50 -10 0 -5 -18 -10 -40 -10 -22 0 -40 -4 -40 -10 0 -6 -36
-10 -89 -10 -62 0 -91 -4 -95 -12 -5 -10 -7 -10 -12 0 -7 14 -44 16 -44 2 0
-5 -18 -10 -40 -10 -22 0 -40 -4 -40 -10 0 -5 -22 -10 -50 -10 -27 0 -50 5
-50 10 0 6 -9 10 -20 10 -11 0 -20 -4 -20 -10 0 -5 -9 -10 -20 -10 -11 0 -20
-4 -20 -10 0 -5 -18 -10 -40 -10 -22 0 -40 5 -40 10 0 6 -9 10 -20 10 -16 0
-20 7 -20 30 0 17 -4 30 -10 30 -5 0 -10 9 -10 20 0 16 7 20 38 20 26 0 42 6
52 20 8 11 20 20 28 20 7 0 20 6 28 14 16 17 19 66 4 66 -5 0 -10 7 -10 16 0
20 -24 44 -44 44 -9 0 -16 5 -16 10 0 6 -29 10 -66 10 -73 0 -94 12 -94 54 0
14 -4 26 -10 26 -5 0 -10 23 -10 50 0 28 -4 50 -10 50 -5 0 -10 14 -10 30 0
17 -4 30 -10 30 -6 0 -10 27 -10 60 0 33 -4 60 -10 60 -6 0 -10 43 -10 109 0
78 -4 111 -12 114 -10 4 -9 8 2 17 11 9 12 13 3 17 -8 2 -13 22 -13 44 0 38 1
39 38 39 26 0 42 6 52 20 8 11 22 20 32 20 11 0 18 7 18 20 0 11 5 20 10 20
14 0 12 37 -2 44 -10 5 -10 7 0 12 22 10 13 24 -16 24 -16 0 -34 8 -42 20 -8
11 -25 20 -38 20 -27 0 -64 31 -44 38 9 3 12 41 12 143 0 86 4 139 10 139 18
0 11 55 -10 70 -21 15 -28 70 -10 70 6 0 10 27 10 60 0 53 2 60 20 60 11 0 20
-4 20 -10 0 -5 9 -10 20 -10 11 0 20 -4 20 -10 0 -6 42 -10 106 -10 105 0 106
0 134 -30 l28 -30 126 0 c77 0 126 4 126 10 0 6 35 10 86 10 86 0 114 10 114
42 0 8 9 20 20 28 11 8 20 22 20 32 0 22 7 23 26 4z m2134 -86 c0 -33 4 -60
10 -60 6 0 10 -33 10 -80 0 -47 -4 -80 -10 -80 -6 0 -10 33 -10 80 0 47 -4 80
-10 80 -5 0 -10 9 -10 20 0 11 -4 20 -10 20 -14 0 -12 48 3 65 22 25 27 16 27
-45z m-1600 -156 c0 -8 -6 -22 -14 -30 -17 -16 -46 -19 -46 -4 0 6 -9 10 -20
10 -11 0 -20 5 -20 10 0 6 9 10 20 10 11 0 20 5 20 10 0 6 14 10 30 10 21 0
30 -5 30 -16z m1640 -324 c0 -47 -4 -80 -10 -80 -6 0 -10 33 -10 80 0 47 4 80
10 80 6 0 10 -33 10 -80z m-1834 46 c19 -20 18 -26 -6 -26 -11 0 -20 -4 -20
-10 0 -5 -8 -10 -18 -10 -10 0 -24 -9 -32 -20 -8 -11 -22 -20 -32 -20 -10 0
-18 -7 -18 -16 0 -9 -13 -29 -30 -44 -16 -15 -30 -34 -30 -42 0 -7 -9 -20 -20
-28 -11 -8 -20 -22 -20 -32 0 -10 -4 -18 -10 -18 -5 0 -10 -9 -10 -20 0 -11
-4 -20 -10 -20 -5 0 -10 9 -10 20 0 11 5 20 10 20 6 0 10 9 10 20 0 11 5 20
10 20 6 0 10 9 10 20 0 11 5 20 10 20 6 0 10 8 10 18 0 10 9 24 20 32 11 8 20
20 20 28 0 18 66 82 85 82 8 0 15 5 15 10 0 6 9 10 20 10 11 0 20 5 20 10 0
14 9 12 26 -4z m-3316 -26 c8 -11 21 -20 28 -20 8 0 27 -13 42 -30 15 -16 33
-30 39 -30 17 0 121 -107 121 -125 0 -8 5 -15 10 -15 6 0 10 -39 10 -98 0 -86
-2 -99 -20 -112 -12 -8 -20 -26 -20 -42 0 -15 -4 -28 -10 -28 -5 0 -10 -9 -10
-20 0 -11 -4 -20 -10 -20 -5 0 -10 -8 -10 -18 0 -10 -9 -24 -20 -32 -11 -8
-20 -22 -20 -32 0 -10 -7 -18 -16 -18 -9 0 -29 -13 -44 -30 -17 -18 -38 -30
-54 -30 -14 0 -26 -4 -26 -10 0 -5 -9 -10 -20 -10 -11 0 -20 -4 -20 -10 0 -15
-77 -12 -84 3 -5 10 -7 10 -12 0 -7 -16 -124 -18 -124 -3 0 6 -13 10 -30 10
-16 0 -30 5 -30 10 0 6 -22 10 -50 10 -27 0 -50 5 -50 10 0 6 -18 10 -40 10
-22 0 -40 5 -40 10 0 6 -18 10 -40 10 -22 0 -40 5 -40 10 0 6 -17 10 -38 10
-26 0 -42 6 -52 20 -8 11 -22 20 -32 20 -10 0 -18 5 -18 10 0 6 -9 10 -20 10
-11 0 -20 5 -20 10 0 6 -9 10 -20 10 -11 0 -20 5 -20 10 0 6 -8 10 -18 10 -10
0 -24 9 -32 20 -8 12 -26 20 -42 20 -15 0 -28 5 -28 10 0 6 -13 10 -30 10
l-30 0 0 80 c0 47 4 80 10 80 14 0 12 38 -2 42 -16 6 14 38 34 38 8 0 20 9 28
20 8 11 22 20 32 20 10 0 18 5 18 10 0 6 8 10 18 10 10 0 24 9 32 20 8 11 22
20 32 20 10 0 18 5 18 10 0 6 9 10 20 10 11 0 20 5 20 10 0 6 8 10 18 10 10 0
24 9 32 20 8 11 26 20 41 20 15 0 30 6 32 13 4 9 8 8 17 -3 9 -11 13 -12 17
-2 2 6 18 12 34 12 16 0 29 5 29 10 0 6 23 10 50 10 28 0 50 5 50 10 0 6 23
10 50 10 28 0 50 5 50 10 0 6 56 10 148 10 136 0 149 -2 162 -20z m-306 -1272
c5 -10 7 -10 12 0 7 14 64 17 64 2 0 -6 97 -10 270 -10 173 0 270 -4 270 -10
0 -5 14 -10 30 -10 17 0 30 -4 30 -10 0 -5 18 -10 40 -10 22 0 40 -4 40 -10 0
-5 18 -10 40 -10 22 0 40 -4 40 -10 0 -5 9 -10 20 -10 11 0 20 -4 20 -10 0 -5
18 -10 40 -10 22 0 40 -4 40 -10 0 -5 14 -10 30 -10 17 0 30 5 30 10 0 6 50
10 130 10 80 0 130 -4 130 -10 0 -5 18 -10 40 -10 22 0 40 -4 40 -10 0 -6 47
-10 120 -10 113 0 120 -1 120 -20 0 -11 -4 -20 -10 -20 -5 0 -10 -9 -10 -20 0
-11 -4 -20 -10 -20 -5 0 -10 -7 -10 -16 0 -9 -10 -26 -22 -37 -16 -13 -19 -21
-10 -24 6 -3 12 -13 12 -24 0 -14 -7 -19 -30 -19 -16 0 -30 5 -30 10 0 6 -22
10 -50 10 -27 0 -50 5 -50 10 0 6 -13 10 -30 10 -16 0 -30 -4 -30 -10 0 -5 -9
-10 -20 -10 -11 0 -20 5 -20 10 0 6 -13 10 -30 10 -16 0 -30 -4 -30 -10 0 -5
-18 -10 -40 -10 -22 0 -40 5 -40 10 0 6 -30 10 -69 10 -46 0 -71 4 -75 13 -5
10 -7 10 -12 0 -7 -16 -184 -18 -184 -3 0 6 -33 10 -80 10 -47 0 -80 -4 -80
-10 0 -6 -50 -10 -130 -10 -80 0 -130 4 -130 10 0 6 -22 10 -50 10 -27 0 -50
5 -50 10 0 6 -9 10 -20 10 -11 0 -20 -4 -20 -10 0 -5 -9 -10 -20 -10 -11 0
-20 5 -20 10 0 6 -33 10 -80 10 -47 0 -80 4 -80 10 0 6 -13 10 -30 10 -16 0
-30 5 -30 10 0 6 -43 10 -109 10 -78 0 -111 4 -115 13 -5 10 -7 10 -12 0 -7
-16 -204 -18 -204 -3 0 6 -27 10 -60 10 -33 0 -60 4 -60 10 0 6 -9 10 -20 10
-11 0 -20 -4 -20 -10 0 -5 -18 -10 -40 -10 -22 0 -40 5 -40 10 0 6 -11 10 -25
10 -42 0 -75 41 -75 95 0 25 -4 45 -10 45 -5 0 -10 5 -10 10 0 6 47 10 120 10
73 0 120 4 120 10 0 6 9 10 20 10 11 0 20 -4 20 -10 0 -6 53 -10 140 -10 87 0
140 4 140 10 0 6 40 10 100 10 60 0 100 4 100 10 0 15 57 12 64 -2z m2176 -38
c0 -5 7 -10 15 -10 20 0 125 -105 125 -125 0 -8 5 -15 10 -15 6 0 10 -9 10
-20 0 -11 5 -20 10 -20 6 0 10 -13 10 -30 0 -16 5 -30 10 -30 6 0 10 -13 10
-30 0 -23 4 -30 20 -30 13 0 20 -7 20 -20 0 -19 -7 -20 -160 -20 -100 0 -160
4 -160 10 0 15 -77 12 -84 -2 -5 -10 -7 -10 -12 0 -3 7 -25 12 -54 12 -29 0
-51 -5 -54 -12 -5 -10 -7 -10 -12 0 -3 6 -14 12 -25 12 -10 0 -19 5 -19 10 0
6 5 10 10 10 6 0 10 8 10 18 0 10 9 24 20 32 11 8 20 21 20 30 0 9 9 22 20 30
11 8 20 22 20 32 0 10 5 18 10 18 6 0 10 7 10 15 0 9 28 44 63 79 59 61 65 65
110 65 26 1 47 -3 47 -9z m1480 -80 c0 -5 23 -10 50 -10 28 0 50 -4 50 -10 0
-5 23 -10 50 -10 28 0 50 -4 50 -10 0 -6 27 -10 60 -10 33 0 60 -4 60 -10 0
-6 120 -10 340 -10 220 0 340 -4 340 -10 0 -6 50 -10 129 -10 94 0 131 -3 135
-12 5 -10 7 -10 12 0 3 6 14 12 25 12 17 0 19 -8 19 -60 0 -33 -4 -60 -10 -60
-5 0 -10 -9 -10 -20 0 -11 -4 -20 -10 -20 -5 0 -10 5 -10 10 0 6 -9 10 -20 10
-11 0 -20 -4 -20 -10 0 -6 -57 -10 -150 -10 -93 0 -150 4 -150 10 0 6 -47 10
-120 10 -73 0 -120 -4 -120 -10 0 -6 -63 -10 -170 -10 -107 0 -170 -4 -170
-10 0 -5 -13 -10 -30 -10 -16 0 -30 5 -30 10 0 6 -9 10 -20 10 -11 0 -20 -4
-20 -10 0 -6 -77 -10 -210 -10 -133 0 -210 4 -210 10 0 6 -9 10 -20 10 -11 0
-20 -4 -20 -10 0 -15 -137 -13 -144 3 -5 10 -7 10 -12 0 -4 -10 -63 -13 -244
-13 -181 0 -240 -3 -244 -12 -5 -10 -7 -10 -12 0 -3 6 -17 12 -31 12 -37 0
-53 23 -53 74 0 25 -4 46 -10 46 -5 0 -10 9 -10 20 0 19 7 20 110 20 67 0 110
4 110 10 0 6 27 10 60 10 33 0 60 4 60 10 0 14 37 12 44 -2 5 -10 7 -10 12 0
4 7 27 12 65 12 33 0 59 4 59 10 0 6 30 10 70 10 40 0 70 4 70 10 0 6 18 10
40 10 22 0 40 5 40 10 0 14 37 12 44 -2 5 -10 7 -10 12 0 3 6 23 12 45 12 21
0 39 5 39 10 0 6 18 10 40 10 22 0 40 -4 40 -10z"/>
<path d="M2420 4070 c0 -5 -9 -10 -20 -10 -22 0 -28 -35 -7 -43 9 -4 9 -8 -2
-15 -11 -8 -9 -15 12 -36 14 -14 31 -26 37 -26 17 0 40 -26 40 -44 0 -22 124
-23 146 -2 16 17 20 106 4 106 -5 0 -10 9 -10 20 0 13 -7 20 -20 20 -11 0 -20
5 -20 10 0 6 -13 10 -30 10 -16 0 -30 5 -30 10 0 6 -22 10 -50 10 -27 0 -50
-4 -50 -10z"/>
<path d="M1900 4050 c0 -5 -13 -10 -29 -10 -16 0 -32 -6 -34 -12 -4 -10 -8
-10 -15 1 -8 11 -15 9 -36 -12 -14 -14 -26 -33 -26 -42 0 -8 -4 -15 -10 -15
-5 0 -10 -9 -10 -20 0 -11 -4 -20 -10 -20 -5 0 -10 -8 -10 -18 0 -10 -9 -24
-20 -32 -11 -8 -20 -21 -20 -30 0 -9 -9 -22 -20 -30 -11 -8 -20 -21 -20 -30 0
-9 -9 -22 -20 -30 -11 -8 -20 -21 -20 -28 0 -8 -13 -27 -30 -42 -16 -15 -30
-34 -30 -42 0 -7 -9 -20 -20 -28 -11 -8 -20 -22 -20 -32 0 -10 -4 -18 -10 -18
-5 0 -10 -9 -10 -20 0 -11 -4 -20 -10 -20 -5 0 -10 -9 -10 -19 0 -11 -6 -22
-12 -25 -10 -5 -10 -7 0 -12 14 -7 16 -44 2 -44 -5 0 -10 -9 -10 -20 0 -11 5
-20 10 -20 6 0 10 -7 10 -15 0 -20 105 -125 125 -125 8 0 15 -4 15 -10 0 -6
27 -10 60 -10 33 0 60 4 60 10 0 6 23 10 50 10 28 0 50 5 50 10 0 6 14 10 30
10 17 0 30 5 30 10 0 6 13 10 28 10 16 0 34 8 42 20 8 11 21 20 30 20 9 0 22
9 30 20 8 11 20 20 28 20 21 0 42 26 42 52 0 13 9 30 20 38 14 10 20 26 20 52
0 21 -4 38 -10 38 -5 0 -10 7 -10 16 0 9 -13 29 -30 44 -35 32 -37 40 -12 40
10 0 24 9 32 20 8 12 26 20 42 20 15 0 28 5 28 10 0 6 7 10 15 10 20 0 65 45
65 65 0 8 5 15 10 15 6 0 10 9 10 20 0 11 5 20 10 20 22 0 9 53 -20 80 -16 15
-30 33 -30 40 0 16 -26 40 -44 40 -9 0 -16 5 -16 10 0 6 -9 10 -20 10 -11 0
-20 5 -20 10 0 6 -9 10 -20 10 -11 0 -20 5 -20 10 0 6 -13 10 -30 10 -16 0
-30 5 -30 10 0 6 -27 10 -60 10 -33 0 -60 -4 -60 -10z"/>
<path d="M1720 2790 c0 -6 -33 -10 -80 -10 -47 0 -80 -4 -80 -10 0 -5 -13 -10
-30 -10 -16 0 -30 -4 -30 -10 0 -5 -7 -10 -15 -10 -9 0 -40 -25 -70 -55 l-55
-55 0 -95 c0 -57 4 -95 10 -95 6 0 10 -16 10 -36 0 -38 18 -64 44 -64 9 0 16
-7 16 -15 0 -9 25 -40 55 -70 45 -46 60 -55 90 -55 19 0 35 -4 35 -10 0 -6 47
-10 120 -10 73 0 120 4 120 10 0 6 14 10 30 10 17 0 30 5 30 10 0 6 7 10 16
10 9 0 29 14 44 30 15 17 33 30 39 30 17 0 61 47 61 65 0 8 5 15 10 15 6 0 10
9 10 20 0 11 5 20 10 20 6 0 10 18 10 40 0 22 -4 40 -10 40 -5 0 -10 16 -10
36 0 29 -8 44 -50 84 -27 27 -50 54 -50 60 0 15 -25 40 -40 40 -7 0 -25 14
-40 30 -15 17 -35 30 -44 30 -9 0 -16 5 -16 10 0 6 -22 10 -50 10 -27 0 -50 5
-50 10 0 6 -9 10 -20 10 -11 0 -20 -4 -20 -10z"/>
</g>
</svg>
