<svg xmlns="http://www.w3.org/2000/svg" width="548" height="188" viewBox="0 0 548.000000 188.000000">
  <g transform="translate(0.000000,188.000000) scale(0.100000,-0.100000)">
  <path fill="#ffffff" d="M1425 1705 c-33 -8 -72 -14 -87 -14 -24 -1 -29 -7 -43 -55 -35 -121
-12 -623 31 -666 12 -12 47 -15 182 -15 154 0 170 2 210 23 42 22 42 23 42 77
0 53 -1 55 -27 55 -16 0 -44 -4 -63 -9 -52 -14 -221 -20 -249 -9 -36 13 -50
38 -51 85 0 52 36 98 88 113 20 5 83 10 140 10 113 0 114 0 116 68 1 35 -1 37
-34 42 -19 3 -69 3 -111 0 -93 -6 -155 2 -175 22 -20 20 -30 98 -16 125 18 32
82 45 192 38 131 -9 140 -5 140 50 0 38 -3 45 -22 49 -27 6 -189 26 -197 25
-3 0 -33 -7 -66 -14z M5075 1533 c-60 -5 -217 -44 -242 -59 -13 -8 -23 -22
-23 -32 -1 -29 40 -237 79 -412 36 -158 39 -166 71 -187 40 -28 91 -29 187 -7
126 29 169 65 144 120 -13 29 -10 28 -124 4 -106 -23 -167 16 -167 107 0 48
25 71 101 94 68 21 70 22 64 48 -10 39 -19 43 -61 32 -51 -13 -103 -16 -131
-7 -27 9 -49 71 -39 110 9 35 34 47 156 72 l105 21 -3 34 c-2 19 -8 42 -13 51
-10 18 -17 19 -104 11z M385 1482 c-86 -34 -155 -95 -155 -138 1 -28 13 -101
59 -349 46 -250 73 -343 115 -391 19 -23 26 -25 56 -17 45 12 48 34 20 127
-32 103 -38 126 -45 178 -5 39 -3 49 16 67 24 22 100 51 134 51 31 0 72 -35
92 -78 20 -45 134 -211 160 -234 22 -20 85 -15 104 8 15 19 -2 64 -44 117 -19
23 -46 63 -60 88 -15 25 -38 56 -51 68 -42 40 -42 72 0 161 33 72 36 85 31
139 -6 75 -33 120 -101 170 -94 69 -209 81 -331 33z m226 -83 c46 -12 86 -68
95 -131 6 -43 4 -48 -35 -90 -44 -49 -82 -64 -178 -74 -45 -5 -67 -2 -91 10
-41 21 -77 79 -85 137 -5 38 -2 52 18 81 13 19 36 40 52 46 110 41 137 44 224
21z M505 1265 c-5 -2 -22 -6 -37 -9 -42 -9 -53 -39 -26 -70 22 -24 26 -26 76
-17 106 17 138 94 41 98 -24 1 -48 0 -54 -2z M2988 1448 c-33 -59 -14 -498 27
-619 20 -59 86 -126 138 -140 81 -22 226 20 262 74 31 48 56 129 60 196 2 36
7 107 10 156 11 135 12 287 4 311 -4 12 -20 25 -35 28 -62 16 -86 -62 -83
-269 4 -267 5 -259 -44 -310 -39 -40 -48 -45 -88 -45 -38 0 -51 6 -90 43 l-46
42 -6 116 c-3 63 -11 128 -17 143 -5 15 -10 66 -10 114 0 107 -19 176 -48 180
-13 2 -25 -5 -34 -20z M2345 1248 c-53 -20 -114 -88 -135 -152 -16 -48 -18
-66 -9 -106 13 -62 73 -155 141 -220 l53 -51 0 -66 c0 -60 -2 -67 -27 -86 -20
-15 -42 -21 -76 -20 -72 1 -117 27 -158 90 -39 61 -53 60 -74 -3 -14 -41 -7
-67 31 -115 32 -41 82 -65 156 -75 43 -5 58 -2 109 24 74 38 103 68 115 122
19 85 -12 165 -114 288 -53 64 -71 116 -61 178 10 66 46 93 112 84 27 -3 61
-14 76 -23 24 -16 66 -87 66 -113 0 -6 9 -22 20 -35 17 -21 21 -22 30 -9 6 9
8 34 5 60 -3 25 -6 53 -6 63 0 23 -35 91 -55 108 -27 22 -129 69 -149 68 -11
0 -33 -5 -50 -11z M3968 974 c-15 -8 -33 -24 -39 -37 -33 -61 -39 -665 -8
-704 6 -7 23 -13 38 -13 56 0 56 1 57 238 1 143 5 225 13 239 8 15 25 24 56
29 58 8 81 -7 125 -80 19 -31 37 -56 40 -56 4 0 12 11 18 25 7 14 18 37 24 51
15 31 49 46 97 42 57 -5 61 -23 61 -265 0 -231 -1 -227 54 -201 16 7 30 25 37
47 20 61 23 420 5 539 -20 132 -24 139 -82 144 -62 5 -83 -7 -113 -65 -36 -70
-58 -82 -123 -66 -49 11 -118 63 -118 88 0 4 -12 20 -26 35 -30 30 -73 34
-116 10z"/>
  <path fill="#0202fd" d="M1425 1763 c-69 -6 -179 -33 -205 -50 -35 -23 -61 -56 -77 -100 -17
-47 -19 -483 -3 -559 28 -135 51 -175 117 -205 84 -38 326 -35 463 5 51 15 96
57 105 97 4 16 11 29 16 29 5 0 9 31 9 68 0 58 -3 72 -22 89 -40 35 -77 42
-148 26 -70 -15 -199 -23 -206 -12 -5 9 53 19 151 25 79 5 137 23 151 46 8 12
20 70 30 144 4 34 1 44 -22 67 -15 15 -37 27 -50 27 -12 0 -35 5 -51 11 -22 8
-24 12 -13 19 8 6 27 10 41 10 53 0 79 45 92 155 3 25 -17 55 -51 77 -33 22
-51 26 -162 30 -69 3 -143 4 -165 1z m156 -53 c135 -17 129 -14 129 -65 0 -55
-9 -59 -140 -50 -110 7 -174 -6 -192 -38 -14 -27 -4 -105 16 -125 20 -20 82
-28 175 -22 42 3 92 3 111 0 33 -5 35 -7 34 -42 -2 -68 -3 -68 -116 -68 -57 0
-120 -5 -140 -10 -52 -15 -88 -61 -88 -113 1 -47 15 -72 51 -85 28 -11 197 -5
249 9 19 5 47 9 63 9 26 0 27 -2 27 -55 0 -54 0 -55 -42 -77 -40 -21 -56 -23
-210 -23 -135 0 -170 3 -182 15 -43 43 -66 545 -31 666 14 48 19 54 43 55 15
0 54 6 87 14 33 7 63 14 66 14 3 1 44 -4 90 -9z M5061 1589 c-13 -5 -32 -7
-41 -4 -10 3 -37 -1 -61 -9 -24 -8 -72 -20 -107 -27 -74 -15 -119 -48 -157
-117 -23 -40 -27 -59 -27 -129 -1 -45 4 -102 10 -125 6 -24 25 -101 43 -173
35 -147 80 -247 124 -280 74 -55 289 -45 413 19 39 20 82 72 89 108 3 15 10
31 14 34 15 9 10 83 -6 115 -21 40 -55 52 -108 38 -65 -17 -147 -23 -147 -10
0 14 60 51 83 51 28 0 67 49 67 84 0 51 -25 117 -51 137 -19 14 -20 19 -7 19
9 0 30 14 47 31 29 28 31 36 31 99 0 38 -4 72 -10 75 -5 3 -10 15 -10 25 0 41
-122 66 -189 39z m118 -67 c5 -9 11 -32 13 -51 l3 -34 -105 -21 c-122 -25
-147 -37 -156 -72 -10 -39 12 -101 39 -110 28 -9 80 -6 131 7 42 11 51 7 61
-32 6 -26 4 -27 -64 -48 -76 -23 -101 -46 -101 -94 0 -91 61 -130 167 -107
114 24 111 25 124 -4 25 -55 -18 -91 -144 -120 -96 -22 -147 -21 -187 7 -32
21 -35 29 -71 187 -39 175 -80 383 -79 412 0 10 10 24 23 32 25 15 182 54 242
59 87 8 94 7 104 -11z M460 1569 c-141 -37 -278 -104 -303 -148 -45 -78 -59
-216 -33 -341 94 -461 139 -583 222 -610 74 -25 212 18 235 71 16 39 6 128
-24 218 -24 70 -21 95 8 71 16 -13 105 -145 105 -155 0 -21 68 -99 96 -111 55
-23 130 -18 190 13 66 33 88 73 81 143 -5 44 -42 120 -67 135 -6 3 -17 22 -25
40 -7 19 -19 40 -24 47 -60 72 -81 102 -81 114 0 8 10 34 22 57 34 64 48 108
48 150 0 56 -19 123 -41 143 -10 9 -19 22 -19 29 0 20 -123 99 -190 122 -68
23 -140 28 -200 12z m164 -71 c53 -15 138 -77 166 -123 13 -21 24 -59 27 -96
5 -54 2 -67 -31 -139 -42 -89 -42 -121 0 -161 13 -12 36 -43 51 -68 14 -25 41
-65 60 -88 42 -53 59 -98 44 -117 -19 -23 -82 -28 -104 -8 -26 23 -140 189
-160 234 -20 43 -61 78 -92 78 -34 0 -110 -29 -134 -51 -30 -28 -24 -72 29
-245 28 -93 25 -115 -20 -127 -30 -8 -37 -6 -56 17 -50 57 -71 141 -155 606
-27 152 -26 157 24 204 83 79 238 116 351 84z M460 1403 c-89 -29 -102 -36
-125 -71 -20 -29 -23 -43 -18 -81 8 -58 44 -116 85 -137 24 -12 46 -15 91 -10
96 10 134 25 178 74 39 42 41 47 35 90 -9 63 -49 119 -95 131 -68 18 -106 19
-151 4z m154 -155 c18 -29 -31 -69 -96 -79 -50 -9 -54 -7 -76 17 -27 31 -16
61 26 70 15 3 32 7 37 9 28 10 99 -1 109 -17z M2948 1520 c-44 -24 -68 -57
-97 -133 -18 -51 -21 -79 -21 -227 0 -194 12 -302 42 -380 25 -64 88 -160 105
-160 6 0 13 -5 15 -11 7 -21 120 -49 197 -49 126 0 228 38 283 105 29 35 74
159 82 225 12 95 27 330 27 427 0 149 -19 181 -121 198 -50 8 -138 -26 -176
-69 -44 -51 -53 -105 -47 -302 6 -189 2 -227 -25 -222 -14 3 -18 18 -23 78 -4
41 -11 111 -17 155 -6 44 -13 121 -16 172 -6 99 -31 171 -69 198 -29 21 -95
18 -139 -5z m108 -100 c8 -25 14 -84 14 -132 0 -48 5 -99 10 -114 6 -15 14
-80 17 -143 l6 -116 46 -42 c39 -37 52 -43 90 -43 40 0 49 5 88 45 49 51 48
43 44 310 -3 207 21 285 83 269 15 -3 31 -16 35 -28 8 -24 7 -176 -4 -311 -3
-49 -8 -120 -10 -156 -4 -67 -29 -148 -60 -196 -36 -54 -181 -96 -262 -74 -52
14 -118 81 -138 140 -41 121 -60 560 -27 619 22 38 52 25 68 -28z M2239 1304
c-77 -42 -164 -178 -176 -274 -11 -91 31 -181 149 -323 26 -32 48 -65 48 -73
0 -27 -32 -11 -52 26 -27 50 -65 78 -125 91 -46 11 -54 10 -86 -10 -56 -34
-71 -66 -71 -146 2 -121 47 -183 193 -259 40 -21 155 -37 186 -25 11 4 40 13
65 20 59 18 132 90 166 166 22 50 25 68 21 133 -2 51 -10 86 -24 110 -30 53
-125 194 -134 200 -12 8 -22 58 -14 70 10 15 31 -4 51 -47 28 -57 79 -100 124
-105 56 -5 75 5 105 53 46 71 34 184 -28 277 -16 24 -38 47 -50 52 -12 4 -38
19 -58 32 -47 33 -77 40 -179 44 -60 2 -93 -2 -111 -12z m233 -73 c32 -15 64
-34 72 -40 20 -17 55 -85 55 -108 0 -10 3 -38 6 -63 3 -26 1 -51 -5 -60 -9
-13 -13 -12 -30 9 -11 13 -20 29 -20 35 0 26 -42 97 -66 113 -15 9 -49 20 -76
23 -66 9 -102 -18 -112 -84 -10 -62 8 -114 61 -178 102 -123 133 -203 114
-288 -12 -54 -41 -84 -115 -122 -51 -26 -66 -29 -109 -24 -74 10 -124 34 -156
75 -38 48 -45 74 -31 115 21 63 35 64 74 3 41 -63 86 -89 158 -90 34 -1 56 5
76 20 25 19 27 26 27 86 l0 66 -53 51 c-68 65 -128 158 -141 220 -25 117 82
265 194 269 11 1 46 -12 77 -28z M3964 1040 c-52 -11 -113 -36 -136 -57 -10
-9 -27 -41 -39 -72 -18 -47 -23 -93 -32 -294 -10 -231 -8 -263 19 -404 2 -13
18 -38 34 -57 24 -27 40 -35 82 -41 131 -18 185 -1 201 66 4 19 10 103 12 187
2 85 5 156 8 158 3 3 16 -6 30 -20 25 -25 37 -28 126 -30 l34 -1 2 -154 1
-154 28 -22 c16 -13 53 -28 83 -34 48 -9 59 -8 98 10 63 30 90 76 125 214 15
62 12 406 -6 500 -23 127 -25 131 -50 160 -23 27 -29 29 -134 33 -125 5 -183
-6 -225 -46 -27 -25 -28 -25 -44 -6 -47 57 -131 82 -217 64z m120 -76 c14 -15
26 -31 26 -35 0 -25 69 -77 118 -88 65 -16 87 -4 123 66 30 58 51 70 113 65
58 -5 62 -12 82 -144 18 -119 15 -478 -5 -539 -7 -22 -21 -40 -37 -47 -55 -26
-54 -30 -54 201 0 242 -4 260 -61 265 -48 4 -82 -11 -97 -42 -6 -14 -17 -37
-24 -51 -6 -14 -14 -25 -18 -25 -3 0 -21 25 -40 56 -44 73 -67 88 -125 80 -31
-5 -48 -14 -56 -29 -8 -14 -12 -96 -13 -239 -1 -237 -1 -238 -57 -238 -15 0
-32 6 -38 13 -31 39 -25 643 8 704 29 55 112 69 155 27z"/>
</g>
</svg>
